<mxfile host="app.diagrams.net" modified="2024-02-13T19:10:07.594Z" agent="Mozilla/5.0 (Windows NT 10.0; Win64; x64) AppleWebKit/537.36 (KHTML, like Gecko) Chrome/121.0.0.0 Safari/537.36 Edg/121.0.0.0" etag="SQE_clkb2j4QNw2PcUDs" version="23.1.2" type="google">
  <diagram name="Strona-1" id="wG5_umZCjteZVF7WjZrg">
    <mxGraphModel grid="1" page="1" gridSize="10" guides="1" tooltips="1" connect="1" arrows="1" fold="1" pageScale="1" pageWidth="850" pageHeight="1100" math="0" shadow="0">
      <root>
        <mxCell id="0" />
        <mxCell id="1" parent="0" />
        <mxCell id="nVaZI51FeeT5_AW7T5yP-10" value="" style="whiteSpace=wrap;html=1;fillColor=#fff2cc;strokeColor=none;" vertex="1" parent="1">
          <mxGeometry x="-220" y="50" width="280" height="2050" as="geometry" />
        </mxCell>
        <mxCell id="x6JtXPcbMbZOkAOCYJe6-2" value="(3.15 Six Feet Under)" style="rounded=0;whiteSpace=wrap;html=1;fillColor=#e1d5e7;strokeColor=#9673a6;" vertex="1" parent="1">
          <mxGeometry x="-180" y="70" width="200" height="60" as="geometry" />
        </mxCell>
        <mxCell id="x6JtXPcbMbZOkAOCYJe6-3" value="&lt;span&gt;&lt;span dir=&quot;ltr&quot; class=&quot;ui-provider ef ayi ayj ayk ayl aym ayn ayo ayp ayq ayr ays ayt ayu ayv ayw ayx ayy ayz aza azb azc azd aze azf azg azh azi azj azk azl azm azn azo azp&quot;&gt;Knowledge creation / Utworzenie wiedzy fabularnej; (Geralt, Sigfrid told Geralt about mysterious disappearances of townsfolk in the cemetery)&lt;/span&gt;&lt;/span&gt;" style="rounded=0;whiteSpace=wrap;html=1;" vertex="1" parent="1">
          <mxGeometry x="-210" y="180" width="260" height="80" as="geometry" />
        </mxCell>
        <mxCell id="b_2GoEoPAxL19k0eejS7-5" style="edgeStyle=orthogonalEdgeStyle;rounded=0;orthogonalLoop=1;jettySize=auto;html=1;exitX=0;exitY=0.5;exitDx=0;exitDy=0;" edge="1" parent="1" source="FekDQM8jbrZTuftXHcIN-11" target="b_2GoEoPAxL19k0eejS7-1">
          <mxGeometry relative="1" as="geometry">
            <Array as="points">
              <mxPoint x="-340" y="585" />
            </Array>
          </mxGeometry>
        </mxCell>
        <mxCell id="FekDQM8jbrZTuftXHcIN-1" value="" style="endArrow=classic;html=1;rounded=0;exitX=0.5;exitY=1;exitDx=0;exitDy=0;" edge="1" parent="1" source="x6JtXPcbMbZOkAOCYJe6-2" target="x6JtXPcbMbZOkAOCYJe6-3">
          <mxGeometry width="50" height="50" relative="1" as="geometry">
            <mxPoint x="-40" y="320" as="sourcePoint" />
            <mxPoint x="10" y="270" as="targetPoint" />
          </mxGeometry>
        </mxCell>
        <mxCell id="FekDQM8jbrZTuftXHcIN-2" value="" style="endArrow=classic;html=1;rounded=0;exitX=0.5;exitY=1;exitDx=0;exitDy=0;" edge="1" parent="1" source="x6JtXPcbMbZOkAOCYJe6-3" target="FekDQM8jbrZTuftXHcIN-3">
          <mxGeometry width="50" height="50" relative="1" as="geometry">
            <mxPoint x="-110" y="360" as="sourcePoint" />
            <mxPoint x="-80" y="290" as="targetPoint" />
          </mxGeometry>
        </mxCell>
        <mxCell id="FekDQM8jbrZTuftXHcIN-3" value="&lt;span id=&quot;docs-internal-guid-4cfbbf0f-7fff-1ddc-6e00-4f36d3d0db7e&quot;&gt;&lt;span style=&quot;background-color: transparent ; vertical-align: baseline&quot;&gt;&lt;font&gt;&lt;font style=&quot;font-size: 12px;&quot;&gt;Location change / Zmiana lokacji; (Geralt, Cemetery&lt;/font&gt;&lt;/font&gt;&lt;/span&gt;&lt;/span&gt;)&lt;span id=&quot;docs-internal-guid-4cfbbf0f-7fff-1ddc-6e00-4f36d3d0db7e&quot;&gt;&lt;/span&gt;" style="rounded=0;whiteSpace=wrap;html=1;align=center;" vertex="1" parent="1">
          <mxGeometry x="-210" y="320" width="260" height="40" as="geometry" />
        </mxCell>
        <mxCell id="igLQ1kcN2VaOKkPszlF--9" value="Knowledge creation / Utworzenie wiedzy fabularnej; (Geralt, Geralt finds out thatthe corpse of a woman has been stabbed and not eaten by ghouls)" style="rounded=0;whiteSpace=wrap;html=1;align=center;" vertex="1" parent="1">
          <mxGeometry x="-210" y="400" width="260" height="100" as="geometry" />
        </mxCell>
        <mxCell id="FekDQM8jbrZTuftXHcIN-5" value="" style="endArrow=classic;html=1;rounded=0;entryX=0.5;entryY=0;entryDx=0;entryDy=0;exitX=0.5;exitY=1;exitDx=0;exitDy=0;" edge="1" parent="1" source="FekDQM8jbrZTuftXHcIN-3" target="igLQ1kcN2VaOKkPszlF--9">
          <mxGeometry width="50" height="50" relative="1" as="geometry">
            <mxPoint x="-90" y="390" as="sourcePoint" />
            <mxPoint x="-40" y="340" as="targetPoint" />
          </mxGeometry>
        </mxCell>
        <mxCell id="FekDQM8jbrZTuftXHcIN-7" value="" style="endArrow=classic;html=1;rounded=0;entryX=0.5;entryY=0;entryDx=0;entryDy=0;exitX=0.5;exitY=1;exitDx=0;exitDy=0;" edge="1" parent="1" source="igLQ1kcN2VaOKkPszlF--9" target="FekDQM8jbrZTuftXHcIN-11">
          <mxGeometry width="50" height="50" relative="1" as="geometry">
            <mxPoint x="-90" y="500" as="sourcePoint" />
            <mxPoint x="-80" y="530" as="targetPoint" />
          </mxGeometry>
        </mxCell>
        <mxCell id="FekDQM8jbrZTuftXHcIN-11" value="&lt;span id=&quot;docs-internal-guid-4cfbbf0f-7fff-1ddc-6e00-4f36d3d0db7e&quot;&gt;&lt;span style=&quot;background-color: transparent ; vertical-align: baseline&quot;&gt;&lt;font&gt;&lt;font style=&quot;font-size: 12px;&quot;&gt;&lt;br&gt;Fight ending with character’s death / Walka zakończona śmiercią uczestnika; (&lt;b&gt;Ghoul&lt;/b&gt;, Geralt)&lt;/font&gt;&lt;br&gt;&lt;/font&gt;&lt;/span&gt;&lt;/span&gt;" style="rounded=0;whiteSpace=wrap;html=1;align=center;" vertex="1" parent="1">
          <mxGeometry x="-210" y="550" width="260" height="70" as="geometry" />
        </mxCell>
        <mxCell id="b_2GoEoPAxL19k0eejS7-1" value="" style="ellipse;whiteSpace=wrap;html=1;aspect=fixed;fontSize=14;align=center;fillColor=#000000;" vertex="1" parent="1">
          <mxGeometry x="-360" y="650" width="40" height="40" as="geometry" />
        </mxCell>
        <mxCell id="FekDQM8jbrZTuftXHcIN-13" value="&lt;span&gt;&lt;span dir=&quot;ltr&quot; class=&quot;ui-provider ef ayi ayj ayk ayl aym ayn ayo ayp ayq ayr ays ayt ayu ayv ayw ayx ayy ayz aza azb azc azd aze azf azg azh azi azj azk azl azm azn azo azp&quot;&gt;Knowledge creation / Utworzenie wiedzy fabularnej; (Geralt, Geralt found Vetala the talking ghoul)&lt;/span&gt;&lt;/span&gt;" style="rounded=0;whiteSpace=wrap;html=1;" vertex="1" parent="1">
          <mxGeometry x="-210" y="670" width="260" height="60" as="geometry" />
        </mxCell>
        <mxCell id="FekDQM8jbrZTuftXHcIN-14" value="" style="endArrow=classic;html=1;rounded=0;entryX=0.5;entryY=0;entryDx=0;entryDy=0;exitX=0.5;exitY=1;exitDx=0;exitDy=0;" edge="1" parent="1" source="FekDQM8jbrZTuftXHcIN-11" target="FekDQM8jbrZTuftXHcIN-13">
          <mxGeometry width="50" height="50" relative="1" as="geometry">
            <mxPoint x="-190" y="810" as="sourcePoint" />
            <mxPoint x="-140" y="760" as="targetPoint" />
          </mxGeometry>
        </mxCell>
        <mxCell id="x6JtXPcbMbZOkAOCYJe6-6" value="Knowledge creation / Utworzenie wiedzy fabularnej; (Geralt,&amp;nbsp;Vetala tells Geralt who is really responsible for the disappearances: the Scoia&#39;tael)" style="rounded=0;whiteSpace=wrap;html=1;align=center;" vertex="1" parent="1">
          <mxGeometry x="-210" y="910.02" width="260" height="60" as="geometry" />
        </mxCell>
        <mxCell id="x6JtXPcbMbZOkAOCYJe6-8" value="" style="endArrow=classic;html=1;rounded=0;entryX=0.5;entryY=0;entryDx=0;entryDy=0;" edge="1" parent="1" source="bjW2cNjtbmRTyIGhvJUG-101" target="x6JtXPcbMbZOkAOCYJe6-6">
          <mxGeometry width="50" height="50" relative="1" as="geometry">
            <mxPoint x="-80" y="970" as="sourcePoint" />
            <mxPoint x="-80" y="1030" as="targetPoint" />
          </mxGeometry>
        </mxCell>
        <mxCell id="FekDQM8jbrZTuftXHcIN-16" value="" style="endArrow=classic;html=1;rounded=0;entryX=0.5;entryY=0;entryDx=0;entryDy=0;exitX=0.5;exitY=1;exitDx=0;exitDy=0;" edge="1" parent="1" source="x6JtXPcbMbZOkAOCYJe6-6" target="FekDQM8jbrZTuftXHcIN-17">
          <mxGeometry width="50" height="50" relative="1" as="geometry">
            <mxPoint x="-80" y="1140.02" as="sourcePoint" />
            <mxPoint x="-80" y="1040.02" as="targetPoint" />
          </mxGeometry>
        </mxCell>
        <mxCell id="bjW2cNjtbmRTyIGhvJUG-71" style="edgeStyle=orthogonalEdgeStyle;rounded=0;orthogonalLoop=1;jettySize=auto;html=1;exitX=0.5;exitY=1;exitDx=0;exitDy=0;entryX=0.5;entryY=0;entryDx=0;entryDy=0;" edge="1" parent="1" source="bjW2cNjtbmRTyIGhvJUG-97" target="bjW2cNjtbmRTyIGhvJUG-69">
          <mxGeometry relative="1" as="geometry" />
        </mxCell>
        <mxCell id="FekDQM8jbrZTuftXHcIN-17" value="&lt;span id=&quot;docs-internal-guid-4cfbbf0f-7fff-1ddc-6e00-4f36d3d0db7e&quot;&gt;&lt;span style=&quot;background-color: transparent ; vertical-align: baseline&quot;&gt;&lt;font&gt;Knowledge creation / Utworzenie wiedzy fabularnej; (Geralt,&amp;nbsp;Socia&#39;tael tell Geralt innocents are at mercy of ghouls)&lt;br&gt;&lt;/font&gt;&lt;/span&gt;&lt;/span&gt;" style="rounded=0;whiteSpace=wrap;html=1;align=center;" vertex="1" parent="1">
          <mxGeometry x="-210" y="1010.02" width="260" height="60" as="geometry" />
        </mxCell>
        <mxCell id="FekDQM8jbrZTuftXHcIN-19" value="" style="endArrow=classic;html=1;rounded=0;exitX=0.5;exitY=1;exitDx=0;exitDy=0;entryX=0.5;entryY=0;entryDx=0;entryDy=0;" edge="1" parent="1" source="bjW2cNjtbmRTyIGhvJUG-69" target="bjW2cNjtbmRTyIGhvJUG-72">
          <mxGeometry width="50" height="50" relative="1" as="geometry">
            <mxPoint x="-90" y="1357.52" as="sourcePoint" />
            <mxPoint x="-80" y="1280.02" as="targetPoint" />
          </mxGeometry>
        </mxCell>
        <mxCell id="bjW2cNjtbmRTyIGhvJUG-79" style="edgeStyle=orthogonalEdgeStyle;rounded=0;orthogonalLoop=1;jettySize=auto;html=1;entryX=0.5;entryY=0;entryDx=0;entryDy=0;" edge="1" parent="1" source="FekDQM8jbrZTuftXHcIN-24" target="bjW2cNjtbmRTyIGhvJUG-77">
          <mxGeometry relative="1" as="geometry" />
        </mxCell>
        <mxCell id="FekDQM8jbrZTuftXHcIN-24" value="&lt;span id=&quot;docs-internal-guid-4cfbbf0f-7fff-1ddc-6e00-4f36d3d0db7e&quot;&gt;&lt;span style=&quot;background-color: transparent ; vertical-align: baseline&quot;&gt;&lt;font&gt;&lt;font style=&quot;font-size: 12px;&quot;&gt;Location change / Zmiana lokacji; (Geralt, Crypt_Chamber&lt;/font&gt;&lt;/font&gt;&lt;/span&gt;&lt;/span&gt;)&lt;span id=&quot;docs-internal-guid-4cfbbf0f-7fff-1ddc-6e00-4f36d3d0db7e&quot;&gt;&lt;/span&gt;" style="rounded=0;whiteSpace=wrap;html=1;align=center;" vertex="1" parent="1">
          <mxGeometry x="-210" y="1392.52" width="260" height="40" as="geometry" />
        </mxCell>
        <mxCell id="FekDQM8jbrZTuftXHcIN-25" value="" style="endArrow=classic;html=1;rounded=0;exitX=0.5;exitY=1;exitDx=0;exitDy=0;entryX=0.5;entryY=0;entryDx=0;entryDy=0;" edge="1" parent="1" source="bjW2cNjtbmRTyIGhvJUG-72" target="FekDQM8jbrZTuftXHcIN-24">
          <mxGeometry width="50" height="50" relative="1" as="geometry">
            <mxPoint x="-80" y="1320.02" as="sourcePoint" />
            <mxPoint x="300" y="1447.52" as="targetPoint" />
          </mxGeometry>
        </mxCell>
        <mxCell id="bjW2cNjtbmRTyIGhvJUG-4" value="" style="edgeStyle=orthogonalEdgeStyle;rounded=0;orthogonalLoop=1;jettySize=auto;html=1;entryX=0.5;entryY=0;entryDx=0;entryDy=0;entryPerimeter=0;" edge="1" parent="1" source="bjW2cNjtbmRTyIGhvJUG-2" target="bjW2cNjtbmRTyIGhvJUG-31">
          <mxGeometry relative="1" as="geometry">
            <mxPoint x="-480" y="1112.52" as="targetPoint" />
          </mxGeometry>
        </mxCell>
        <mxCell id="bjW2cNjtbmRTyIGhvJUG-2" value="Fight ending with character’s death / Walka zakończona śmiercią uczestnika; (&lt;b style=&quot;border-color: var(--border-color); color: rgb(0, 0, 0);&quot;&gt;Vetala&lt;/b&gt;&lt;span style=&quot;color: rgb(0, 0, 0);&quot;&gt;, Geralt)&lt;/span&gt;" style="rounded=0;whiteSpace=wrap;html=1;align=center;" vertex="1" parent="1">
          <mxGeometry x="-610" y="1012.52" width="260" height="60" as="geometry" />
        </mxCell>
        <mxCell id="bjW2cNjtbmRTyIGhvJUG-6" value="" style="edgeStyle=orthogonalEdgeStyle;rounded=0;orthogonalLoop=1;jettySize=auto;html=1;exitX=0.5;exitY=1;exitDx=0;exitDy=0;" edge="1" parent="1" source="bjW2cNjtbmRTyIGhvJUG-31">
          <mxGeometry relative="1" as="geometry">
            <mxPoint x="-480" y="1172.52" as="sourcePoint" />
            <mxPoint x="-480" y="1212.52" as="targetPoint" />
          </mxGeometry>
        </mxCell>
        <mxCell id="bjW2cNjtbmRTyIGhvJUG-11" value="" style="edgeStyle=orthogonalEdgeStyle;rounded=0;orthogonalLoop=1;jettySize=auto;html=1;" edge="1" parent="1" source="bjW2cNjtbmRTyIGhvJUG-7" target="bjW2cNjtbmRTyIGhvJUG-10">
          <mxGeometry relative="1" as="geometry" />
        </mxCell>
        <mxCell id="bjW2cNjtbmRTyIGhvJUG-7" value="Fight ending with character’s death / Walka zakończona śmiercią uczestnika; (&lt;b style=&quot;border-color: var(--border-color); color: rgb(0, 0, 0);&quot;&gt;Ghoul&lt;/b&gt;&lt;span style=&quot;color: rgb(0, 0, 0);&quot;&gt;, Geralt)&lt;/span&gt;" style="rounded=0;whiteSpace=wrap;html=1;align=center;" vertex="1" parent="1">
          <mxGeometry x="-610" y="1212.52" width="260" height="60" as="geometry" />
        </mxCell>
        <mxCell id="bjW2cNjtbmRTyIGhvJUG-8" style="edgeStyle=orthogonalEdgeStyle;rounded=0;orthogonalLoop=1;jettySize=auto;html=1;" edge="1" parent="1" target="bjW2cNjtbmRTyIGhvJUG-9">
          <mxGeometry relative="1" as="geometry">
            <mxPoint x="-610" y="1242.52" as="sourcePoint" />
            <Array as="points">
              <mxPoint x="-720" y="1242.52" />
            </Array>
          </mxGeometry>
        </mxCell>
        <mxCell id="bjW2cNjtbmRTyIGhvJUG-9" value="" style="ellipse;whiteSpace=wrap;html=1;aspect=fixed;fontSize=14;align=center;fillColor=#000000;" vertex="1" parent="1">
          <mxGeometry x="-740" y="1282.52" width="40" height="40" as="geometry" />
        </mxCell>
        <mxCell id="bjW2cNjtbmRTyIGhvJUG-10" value="&lt;span style=&quot;color: rgb(51, 51, 51); font-family: Helvetica; font-size: 12px; font-style: normal; font-variant-ligatures: normal; font-variant-caps: normal; font-weight: 400; letter-spacing: normal; orphans: 2; text-indent: 0px; text-transform: none; widows: 2; word-spacing: 0px; -webkit-text-stroke-width: 0px; background-color: rgb(251, 251, 251); text-decoration-thickness: initial; text-decoration-style: initial; text-decoration-color: initial; float: none; display: inline !important;&quot;&gt;Fight ending with character’s death / Walka zakończona śmiercią uczestnika; (N&lt;/span&gt;&lt;span style=&quot;border-color: var(--border-color); font-family: Helvetica; font-size: 12px; font-style: normal; font-variant-ligatures: normal; font-variant-caps: normal; letter-spacing: normal; orphans: 2; text-indent: 0px; text-transform: none; widows: 2; word-spacing: 0px; -webkit-text-stroke-width: 0px; background-color: rgb(251, 251, 251); text-decoration-thickness: initial; text-decoration-style: initial; text-decoration-color: initial; color: rgb(0, 0, 0);&quot;&gt;&lt;b&gt;ecrophage&amp;nbsp;&lt;/b&gt;&lt;/span&gt;&lt;span style=&quot;border-color: var(--border-color); font-family: Helvetica; font-size: 12px; font-style: normal; font-variant-ligatures: normal; font-variant-caps: normal; font-weight: 400; letter-spacing: normal; orphans: 2; text-indent: 0px; text-transform: none; widows: 2; word-spacing: 0px; -webkit-text-stroke-width: 0px; background-color: rgb(251, 251, 251); text-decoration-thickness: initial; text-decoration-style: initial; text-decoration-color: initial; color: rgb(0, 0, 0);&quot;&gt;, Geralt)&lt;/span&gt;" style="whiteSpace=wrap;html=1;rounded=0;align=center;verticalAlign=middle;" vertex="1" parent="1">
          <mxGeometry x="-610" y="1347.52" width="260" height="60" as="geometry" />
        </mxCell>
        <mxCell id="bjW2cNjtbmRTyIGhvJUG-12" style="edgeStyle=orthogonalEdgeStyle;rounded=0;orthogonalLoop=1;jettySize=auto;html=1;" edge="1" parent="1" target="bjW2cNjtbmRTyIGhvJUG-13">
          <mxGeometry relative="1" as="geometry">
            <mxPoint x="-610" y="1377.52" as="sourcePoint" />
            <Array as="points">
              <mxPoint x="-720" y="1377.52" />
            </Array>
          </mxGeometry>
        </mxCell>
        <mxCell id="bjW2cNjtbmRTyIGhvJUG-13" value="" style="ellipse;whiteSpace=wrap;html=1;aspect=fixed;fontSize=14;align=center;fillColor=#000000;" vertex="1" parent="1">
          <mxGeometry x="-740" y="1422.52" width="40" height="40" as="geometry" />
        </mxCell>
        <mxCell id="bjW2cNjtbmRTyIGhvJUG-23" style="edgeStyle=orthogonalEdgeStyle;rounded=0;orthogonalLoop=1;jettySize=auto;html=1;exitX=0.5;exitY=1;exitDx=0;exitDy=0;" edge="1" parent="1" source="bjW2cNjtbmRTyIGhvJUG-66" target="bjW2cNjtbmRTyIGhvJUG-25">
          <mxGeometry relative="1" as="geometry">
            <mxPoint x="-480" y="1712.52" as="sourcePoint" />
          </mxGeometry>
        </mxCell>
        <mxCell id="bjW2cNjtbmRTyIGhvJUG-25" value="" style="ellipse;whiteSpace=wrap;html=1;aspect=fixed;fontSize=14;align=center;fillColor=#fff2cc;strokeWidth=1;strokeColor=#d6b656;" vertex="1" parent="1">
          <mxGeometry x="-500" y="1752.52" width="40" height="40" as="geometry" />
        </mxCell>
        <mxCell id="bjW2cNjtbmRTyIGhvJUG-26" value="" style="edgeStyle=orthogonalEdgeStyle;rounded=0;orthogonalLoop=1;jettySize=auto;html=1;exitX=0.5;exitY=1;exitDx=0;exitDy=0;entryX=0.5;entryY=0;entryDx=0;entryDy=0;" edge="1" parent="1" source="bjW2cNjtbmRTyIGhvJUG-10" target="bjW2cNjtbmRTyIGhvJUG-67">
          <mxGeometry relative="1" as="geometry">
            <mxPoint x="-470" y="1282.52" as="sourcePoint" />
            <mxPoint x="-480" y="1447.52" as="targetPoint" />
          </mxGeometry>
        </mxCell>
        <mxCell id="bjW2cNjtbmRTyIGhvJUG-31" value="&lt;span id=&quot;docs-internal-guid-4cfbbf0f-7fff-1ddc-6e00-4f36d3d0db7e&quot;&gt;&lt;span style=&quot;background-color: transparent ; vertical-align: baseline&quot;&gt;&lt;font&gt;&lt;font style=&quot;font-size: 12px;&quot; face=&quot;arial&quot;&gt;Giving experience; (Geralt, 2000)&lt;/font&gt;&lt;br&gt;&lt;/font&gt;&lt;/span&gt;&lt;/span&gt;" style="rounded=0;whiteSpace=wrap;html=1;align=center;" vertex="1" parent="1">
          <mxGeometry x="-610" y="1112.52" width="260" height="40" as="geometry" />
        </mxCell>
        <mxCell id="bjW2cNjtbmRTyIGhvJUG-32" value="" style="edgeStyle=orthogonalEdgeStyle;rounded=0;orthogonalLoop=1;jettySize=auto;html=1;exitX=0.5;exitY=1;exitDx=0;exitDy=0;entryX=0.5;entryY=0;entryDx=0;entryDy=0;" edge="1" parent="1" source="bjW2cNjtbmRTyIGhvJUG-103" target="bjW2cNjtbmRTyIGhvJUG-30">
          <mxGeometry relative="1" as="geometry">
            <mxPoint x="-480" y="1050" as="targetPoint" />
            <mxPoint x="-80" y="790" as="sourcePoint" />
            <Array as="points">
              <mxPoint x="-480" y="770" />
            </Array>
          </mxGeometry>
        </mxCell>
        <mxCell id="bjW2cNjtbmRTyIGhvJUG-58" style="edgeStyle=orthogonalEdgeStyle;rounded=0;orthogonalLoop=1;jettySize=auto;html=1;exitX=0.5;exitY=1;exitDx=0;exitDy=0;entryX=0.5;entryY=0;entryDx=0;entryDy=0;" edge="1" parent="1" source="bjW2cNjtbmRTyIGhvJUG-30" target="bjW2cNjtbmRTyIGhvJUG-2">
          <mxGeometry relative="1" as="geometry" />
        </mxCell>
        <mxCell id="bjW2cNjtbmRTyIGhvJUG-30" value="Knowledge creation / Utworzenie wiedzy fabularnej; (Geralt, Geralt believes that Vetala was behind the murders)" style="whiteSpace=wrap;html=1;rounded=0;" vertex="1" parent="1">
          <mxGeometry x="-610" y="910.02" width="260" height="60" as="geometry" />
        </mxCell>
        <mxCell id="bjW2cNjtbmRTyIGhvJUG-33" style="edgeStyle=orthogonalEdgeStyle;rounded=0;orthogonalLoop=1;jettySize=auto;html=1;" edge="1" parent="1" source="bjW2cNjtbmRTyIGhvJUG-2" target="bjW2cNjtbmRTyIGhvJUG-34">
          <mxGeometry relative="1" as="geometry">
            <mxPoint x="-610" y="1042.52" as="sourcePoint" />
            <Array as="points">
              <mxPoint x="-720" y="1042.52" />
            </Array>
          </mxGeometry>
        </mxCell>
        <mxCell id="bjW2cNjtbmRTyIGhvJUG-34" value="" style="ellipse;whiteSpace=wrap;html=1;aspect=fixed;fontSize=14;align=center;fillColor=#000000;" vertex="1" parent="1">
          <mxGeometry x="-740" y="1092.52" width="40" height="40" as="geometry" />
        </mxCell>
        <mxCell id="bjW2cNjtbmRTyIGhvJUG-42" value="Fight ending with character’s death / Walka zakończona śmiercią uczestnika; (&lt;b style=&quot;border-color: var(--border-color); color: rgb(0, 0, 0);&quot;&gt;Socia&#39;teal&lt;/b&gt;&lt;span style=&quot;color: rgb(0, 0, 0);&quot;&gt;, Geralt)&lt;/span&gt;" style="rounded=0;whiteSpace=wrap;html=1;align=center;" vertex="1" parent="1">
          <mxGeometry x="360" y="1202.5" width="260" height="60" as="geometry" />
        </mxCell>
        <mxCell id="bjW2cNjtbmRTyIGhvJUG-43" style="edgeStyle=orthogonalEdgeStyle;rounded=0;orthogonalLoop=1;jettySize=auto;html=1;exitX=1;exitY=0.5;exitDx=0;exitDy=0;" edge="1" parent="1" source="bjW2cNjtbmRTyIGhvJUG-42" target="bjW2cNjtbmRTyIGhvJUG-44">
          <mxGeometry relative="1" as="geometry">
            <mxPoint x="360" y="1297.52" as="sourcePoint" />
            <Array as="points">
              <mxPoint x="620" y="1230" />
              <mxPoint x="700" y="1230" />
            </Array>
          </mxGeometry>
        </mxCell>
        <mxCell id="bjW2cNjtbmRTyIGhvJUG-44" value="" style="ellipse;whiteSpace=wrap;html=1;aspect=fixed;fontSize=14;align=center;fillColor=#000000;" vertex="1" parent="1">
          <mxGeometry x="680" y="1287.5" width="40" height="40" as="geometry" />
        </mxCell>
        <mxCell id="bjW2cNjtbmRTyIGhvJUG-48" value="&lt;span id=&quot;docs-internal-guid-4cfbbf0f-7fff-1ddc-6e00-4f36d3d0db7e&quot;&gt;&lt;span style=&quot;background-color: transparent ; vertical-align: baseline&quot;&gt;&lt;font&gt;&lt;font style=&quot;font-size: 12px;&quot; face=&quot;arial&quot;&gt;Giving experience; (Geralt, 3500)&lt;/font&gt;&lt;br&gt;&lt;/font&gt;&lt;/span&gt;&lt;/span&gt;" style="rounded=0;whiteSpace=wrap;html=1;align=center;" vertex="1" parent="1">
          <mxGeometry x="360" y="1517.52" width="260" height="40" as="geometry" />
        </mxCell>
        <mxCell id="bjW2cNjtbmRTyIGhvJUG-49" value="" style="endArrow=classic;html=1;rounded=0;entryX=0.5;entryY=0;entryDx=0;entryDy=0;exitX=0.5;exitY=1;exitDx=0;exitDy=0;" edge="1" parent="1" source="bjW2cNjtbmRTyIGhvJUG-48" target="bjW2cNjtbmRTyIGhvJUG-51">
          <mxGeometry width="50" height="50" relative="1" as="geometry">
            <mxPoint x="560" y="1605" as="sourcePoint" />
            <mxPoint x="489.76" y="1595" as="targetPoint" />
          </mxGeometry>
        </mxCell>
        <mxCell id="bjW2cNjtbmRTyIGhvJUG-50" style="edgeStyle=orthogonalEdgeStyle;rounded=0;orthogonalLoop=1;jettySize=auto;html=1;" edge="1" parent="1" source="bjW2cNjtbmRTyIGhvJUG-51" target="bjW2cNjtbmRTyIGhvJUG-52">
          <mxGeometry relative="1" as="geometry" />
        </mxCell>
        <mxCell id="bjW2cNjtbmRTyIGhvJUG-51" value="&lt;span id=&quot;docs-internal-guid-4cfbbf0f-7fff-1ddc-6e00-4f36d3d0db7e&quot;&gt;&lt;span style=&quot;background-color: transparent ; vertical-align: baseline&quot;&gt;&lt;font&gt;&lt;font style=&quot;font-size: 12px;&quot; face=&quot;arial&quot;&gt;Giving money; (Geralt, 300)&lt;/font&gt;&lt;br&gt;&lt;/font&gt;&lt;/span&gt;&lt;/span&gt;" style="rounded=0;whiteSpace=wrap;html=1;align=center;" vertex="1" parent="1">
          <mxGeometry x="360" y="1602.52" width="260" height="40" as="geometry" />
        </mxCell>
        <mxCell id="bjW2cNjtbmRTyIGhvJUG-52" value="" style="ellipse;whiteSpace=wrap;html=1;aspect=fixed;fontSize=14;align=center;fillColor=#fff2cc;strokeWidth=1;strokeColor=#d6b656;" vertex="1" parent="1">
          <mxGeometry x="470" y="1682.5" width="40" height="40" as="geometry" />
        </mxCell>
        <mxCell id="bjW2cNjtbmRTyIGhvJUG-53" value="" style="edgeStyle=orthogonalEdgeStyle;rounded=0;orthogonalLoop=1;jettySize=auto;html=1;exitX=0.5;exitY=1;exitDx=0;exitDy=0;entryX=0.5;entryY=0;entryDx=0;entryDy=0;" edge="1" parent="1" source="bjW2cNjtbmRTyIGhvJUG-62" target="bjW2cNjtbmRTyIGhvJUG-48">
          <mxGeometry relative="1" as="geometry">
            <mxPoint x="490" y="1490" as="sourcePoint" />
            <mxPoint x="500" y="1440" as="targetPoint" />
          </mxGeometry>
        </mxCell>
        <mxCell id="bjW2cNjtbmRTyIGhvJUG-56" style="edgeStyle=orthogonalEdgeStyle;rounded=0;orthogonalLoop=1;jettySize=auto;html=1;" edge="1" parent="1">
          <mxGeometry relative="1" as="geometry">
            <mxPoint x="520" y="1059.9565217391305" as="sourcePoint" />
            <Array as="points">
              <mxPoint x="640" y="1060" />
            </Array>
          </mxGeometry>
        </mxCell>
        <mxCell id="bjW2cNjtbmRTyIGhvJUG-59" style="edgeStyle=orthogonalEdgeStyle;rounded=0;orthogonalLoop=1;jettySize=auto;html=1;entryX=0.5;entryY=0;entryDx=0;entryDy=0;exitX=0.5;exitY=1;exitDx=0;exitDy=0;" edge="1" parent="1" source="FekDQM8jbrZTuftXHcIN-17" target="bjW2cNjtbmRTyIGhvJUG-99">
          <mxGeometry relative="1" as="geometry">
            <mxPoint x="-80" y="1120.02" as="sourcePoint" />
            <Array as="points">
              <mxPoint x="-80" y="1090" />
              <mxPoint x="490" y="1090" />
            </Array>
          </mxGeometry>
        </mxCell>
        <mxCell id="bjW2cNjtbmRTyIGhvJUG-63" style="edgeStyle=orthogonalEdgeStyle;rounded=0;orthogonalLoop=1;jettySize=auto;html=1;exitX=0.5;exitY=1;exitDx=0;exitDy=0;entryX=0.5;entryY=0;entryDx=0;entryDy=0;" edge="1" parent="1" source="bjW2cNjtbmRTyIGhvJUG-60" target="bjW2cNjtbmRTyIGhvJUG-62">
          <mxGeometry relative="1" as="geometry" />
        </mxCell>
        <mxCell id="bjW2cNjtbmRTyIGhvJUG-60" value="&lt;span id=&quot;docs-internal-guid-4cfbbf0f-7fff-1ddc-6e00-4f36d3d0db7e&quot;&gt;&lt;span style=&quot;background-color: transparent ; vertical-align: baseline&quot;&gt;&lt;font&gt;&lt;font style=&quot;font-size: 12px;&quot; face=&quot;arial&quot;&gt;Giving experience; (Geralt, 2000)&lt;/font&gt;&lt;br&gt;&lt;/font&gt;&lt;/span&gt;&lt;/span&gt;" style="rounded=0;whiteSpace=wrap;html=1;align=center;" vertex="1" parent="1">
          <mxGeometry x="360" y="1315" width="260" height="40" as="geometry" />
        </mxCell>
        <mxCell id="bjW2cNjtbmRTyIGhvJUG-61" value="" style="edgeStyle=orthogonalEdgeStyle;rounded=0;orthogonalLoop=1;jettySize=auto;html=1;exitX=0.5;exitY=1;exitDx=0;exitDy=0;entryX=0.5;entryY=0;entryDx=0;entryDy=0;" edge="1" parent="1" source="bjW2cNjtbmRTyIGhvJUG-42" target="bjW2cNjtbmRTyIGhvJUG-60">
          <mxGeometry relative="1" as="geometry">
            <mxPoint x="490" y="1300.02" as="sourcePoint" />
            <mxPoint x="500" y="1250.02" as="targetPoint" />
          </mxGeometry>
        </mxCell>
        <mxCell id="bjW2cNjtbmRTyIGhvJUG-62" value="&lt;span&gt;&lt;span dir=&quot;ltr&quot; class=&quot;ui-provider ef ayi ayj ayk ayl aym ayn ayo ayp ayq ayr ays ayt ayu ayv ayw ayx ayy ayz aza azb azc azd aze azf azg azh azi azj azk azl azm azn azo azp&quot;&gt;Knowledge creation / Utworzenie wiedzy fabularnej; (Sigfrid, Geralt report about the mission result)&lt;/span&gt;&lt;/span&gt;" style="rounded=0;whiteSpace=wrap;html=1;" vertex="1" parent="1">
          <mxGeometry x="360" y="1392.52" width="260" height="80" as="geometry" />
        </mxCell>
        <mxCell id="bjW2cNjtbmRTyIGhvJUG-64" value="&lt;span id=&quot;docs-internal-guid-4cfbbf0f-7fff-1ddc-6e00-4f36d3d0db7e&quot;&gt;&lt;span style=&quot;background-color: transparent ; vertical-align: baseline&quot;&gt;&lt;font&gt;&lt;font style=&quot;font-size: 12px;&quot; face=&quot;arial&quot;&gt;Giving experience; (Geralt, 2500)&lt;/font&gt;&lt;br&gt;&lt;/font&gt;&lt;/span&gt;&lt;/span&gt;" style="rounded=0;whiteSpace=wrap;html=1;align=center;" vertex="1" parent="1">
          <mxGeometry x="-610" y="1580.02" width="260" height="40" as="geometry" />
        </mxCell>
        <mxCell id="bjW2cNjtbmRTyIGhvJUG-65" value="" style="endArrow=classic;html=1;rounded=0;entryX=0.5;entryY=0;entryDx=0;entryDy=0;exitX=0.5;exitY=1;exitDx=0;exitDy=0;" edge="1" parent="1" source="bjW2cNjtbmRTyIGhvJUG-64" target="bjW2cNjtbmRTyIGhvJUG-66">
          <mxGeometry width="50" height="50" relative="1" as="geometry">
            <mxPoint x="-410" y="1665.02" as="sourcePoint" />
            <mxPoint x="-480.24" y="1655.02" as="targetPoint" />
          </mxGeometry>
        </mxCell>
        <mxCell id="bjW2cNjtbmRTyIGhvJUG-66" value="&lt;span id=&quot;docs-internal-guid-4cfbbf0f-7fff-1ddc-6e00-4f36d3d0db7e&quot;&gt;&lt;span style=&quot;background-color: transparent ; vertical-align: baseline&quot;&gt;&lt;font&gt;&lt;font style=&quot;font-size: 12px;&quot; face=&quot;arial&quot;&gt;Giving money; (Geralt, 200)&lt;/font&gt;&lt;br&gt;&lt;/font&gt;&lt;/span&gt;&lt;/span&gt;" style="rounded=0;whiteSpace=wrap;html=1;align=center;" vertex="1" parent="1">
          <mxGeometry x="-610" y="1660.02" width="260" height="40" as="geometry" />
        </mxCell>
        <mxCell id="bjW2cNjtbmRTyIGhvJUG-68" style="edgeStyle=orthogonalEdgeStyle;rounded=0;orthogonalLoop=1;jettySize=auto;html=1;exitX=0.5;exitY=1;exitDx=0;exitDy=0;entryX=0.5;entryY=0;entryDx=0;entryDy=0;" edge="1" parent="1" source="bjW2cNjtbmRTyIGhvJUG-67" target="bjW2cNjtbmRTyIGhvJUG-64">
          <mxGeometry relative="1" as="geometry" />
        </mxCell>
        <mxCell id="bjW2cNjtbmRTyIGhvJUG-67" value="&lt;span&gt;&lt;span dir=&quot;ltr&quot; class=&quot;ui-provider ef ayi ayj ayk ayl aym ayn ayo ayp ayq ayr ays ayt ayu ayv ayw ayx ayy ayz aza azb azc azd aze azf azg azh azi azj azk azl azm azn azo azp&quot;&gt;Knowledge creation / Utworzenie wiedzy fabularnej; (Sigfrid, Geralt report about the mission result)&lt;/span&gt;&lt;/span&gt;" style="rounded=0;whiteSpace=wrap;html=1;" vertex="1" parent="1">
          <mxGeometry x="-610" y="1460.02" width="260" height="80" as="geometry" />
        </mxCell>
        <mxCell id="bjW2cNjtbmRTyIGhvJUG-69" value="&lt;span id=&quot;docs-internal-guid-4cfbbf0f-7fff-1ddc-6e00-4f36d3d0db7e&quot;&gt;&lt;span style=&quot;background-color: transparent ; vertical-align: baseline&quot;&gt;&lt;font&gt;&lt;font style=&quot;font-size: 12px;&quot;&gt;Location change / Zmiana lokacji; (Geralt, Cemetery_Crypt&lt;/font&gt;&lt;/font&gt;&lt;/span&gt;&lt;/span&gt;)&lt;span id=&quot;docs-internal-guid-4cfbbf0f-7fff-1ddc-6e00-4f36d3d0db7e&quot;&gt;&lt;/span&gt;" style="rounded=0;whiteSpace=wrap;html=1;align=center;" vertex="1" parent="1">
          <mxGeometry x="-210" y="1202.5" width="260" height="40" as="geometry" />
        </mxCell>
        <mxCell id="bjW2cNjtbmRTyIGhvJUG-73" style="edgeStyle=orthogonalEdgeStyle;rounded=0;orthogonalLoop=1;jettySize=auto;html=1;exitX=1;exitY=0.5;exitDx=0;exitDy=0;" edge="1" parent="1" source="bjW2cNjtbmRTyIGhvJUG-72" target="bjW2cNjtbmRTyIGhvJUG-74">
          <mxGeometry relative="1" as="geometry">
            <mxPoint x="190" y="1310.1670588235293" as="targetPoint" />
          </mxGeometry>
        </mxCell>
        <mxCell id="bjW2cNjtbmRTyIGhvJUG-72" value="Fight ending with character’s death / Walka zakończona śmiercią uczestnika; (&lt;b style=&quot;border-color: var(--border-color); color: rgb(0, 0, 0);&quot;&gt;Ghoul&lt;/b&gt;&lt;span style=&quot;color: rgb(0, 0, 0);&quot;&gt;, Geralt)&lt;/span&gt;" style="rounded=0;whiteSpace=wrap;html=1;align=center;" vertex="1" parent="1">
          <mxGeometry x="-210" y="1280.02" width="260" height="60" as="geometry" />
        </mxCell>
        <mxCell id="bjW2cNjtbmRTyIGhvJUG-74" value="" style="ellipse;whiteSpace=wrap;html=1;aspect=fixed;fontSize=14;align=center;fillColor=#000000;" vertex="1" parent="1">
          <mxGeometry x="130" y="1347.52" width="40" height="40" as="geometry" />
        </mxCell>
        <mxCell id="bjW2cNjtbmRTyIGhvJUG-75" value="" style="endArrow=classic;html=1;rounded=0;exitX=0.5;exitY=1;exitDx=0;exitDy=0;entryX=0.5;entryY=0;entryDx=0;entryDy=0;" edge="1" parent="1" source="bjW2cNjtbmRTyIGhvJUG-77" target="bjW2cNjtbmRTyIGhvJUG-82">
          <mxGeometry width="50" height="50" relative="1" as="geometry">
            <mxPoint x="-80" y="1535.02" as="sourcePoint" />
            <mxPoint x="-80" y="1607.52" as="targetPoint" />
          </mxGeometry>
        </mxCell>
        <mxCell id="bjW2cNjtbmRTyIGhvJUG-76" style="edgeStyle=orthogonalEdgeStyle;rounded=0;orthogonalLoop=1;jettySize=auto;html=1;exitX=1;exitY=0.5;exitDx=0;exitDy=0;" edge="1" parent="1" source="bjW2cNjtbmRTyIGhvJUG-77" target="bjW2cNjtbmRTyIGhvJUG-78">
          <mxGeometry relative="1" as="geometry">
            <mxPoint x="190" y="1525.1670588235293" as="targetPoint" />
          </mxGeometry>
        </mxCell>
        <mxCell id="bjW2cNjtbmRTyIGhvJUG-77" value="Fight ending with character’s death / Walka zakończona śmiercią uczestnika; (&lt;b style=&quot;border-color: var(--border-color); color: rgb(0, 0, 0);&quot;&gt;Ghoul&lt;/b&gt;&lt;span style=&quot;color: rgb(0, 0, 0);&quot;&gt;, Geralt)&lt;/span&gt;" style="rounded=0;whiteSpace=wrap;html=1;align=center;" vertex="1" parent="1">
          <mxGeometry x="-210" y="1497.52" width="260" height="60" as="geometry" />
        </mxCell>
        <mxCell id="bjW2cNjtbmRTyIGhvJUG-78" value="" style="ellipse;whiteSpace=wrap;html=1;aspect=fixed;fontSize=14;align=center;fillColor=#000000;" vertex="1" parent="1">
          <mxGeometry x="130" y="1562.52" width="40" height="40" as="geometry" />
        </mxCell>
        <mxCell id="bjW2cNjtbmRTyIGhvJUG-80" value="" style="endArrow=classic;html=1;rounded=0;exitX=0.5;exitY=1;exitDx=0;exitDy=0;entryX=0.5;entryY=0;entryDx=0;entryDy=0;" edge="1" parent="1" source="bjW2cNjtbmRTyIGhvJUG-82" target="bjW2cNjtbmRTyIGhvJUG-92">
          <mxGeometry width="50" height="50" relative="1" as="geometry">
            <mxPoint x="-80" y="1665.52" as="sourcePoint" />
            <mxPoint x="-80" y="1733.0199999999995" as="targetPoint" />
          </mxGeometry>
        </mxCell>
        <mxCell id="bjW2cNjtbmRTyIGhvJUG-81" style="edgeStyle=orthogonalEdgeStyle;rounded=0;orthogonalLoop=1;jettySize=auto;html=1;exitX=1;exitY=0.5;exitDx=0;exitDy=0;" edge="1" parent="1" source="bjW2cNjtbmRTyIGhvJUG-82" target="bjW2cNjtbmRTyIGhvJUG-83">
          <mxGeometry relative="1" as="geometry">
            <mxPoint x="190" y="1655.6670588235293" as="targetPoint" />
          </mxGeometry>
        </mxCell>
        <mxCell id="bjW2cNjtbmRTyIGhvJUG-82" value="Fight ending with character’s death / Walka zakończona śmiercią uczestnika; (&lt;b style=&quot;border-color: var(--border-color); color: rgb(0, 0, 0);&quot;&gt;Necrophage&lt;/b&gt;&lt;span style=&quot;color: rgb(0, 0, 0);&quot;&gt;, Geralt)&lt;/span&gt;" style="rounded=0;whiteSpace=wrap;html=1;align=center;" vertex="1" parent="1">
          <mxGeometry x="-210" y="1625.52" width="260" height="60" as="geometry" />
        </mxCell>
        <mxCell id="bjW2cNjtbmRTyIGhvJUG-83" value="" style="ellipse;whiteSpace=wrap;html=1;aspect=fixed;fontSize=14;align=center;fillColor=#000000;" vertex="1" parent="1">
          <mxGeometry x="130" y="1693.02" width="40" height="40" as="geometry" />
        </mxCell>
        <mxCell id="bjW2cNjtbmRTyIGhvJUG-85" value="&lt;span id=&quot;docs-internal-guid-4cfbbf0f-7fff-1ddc-6e00-4f36d3d0db7e&quot;&gt;&lt;span style=&quot;background-color: transparent ; vertical-align: baseline&quot;&gt;&lt;font&gt;&lt;font style=&quot;font-size: 12px;&quot; face=&quot;arial&quot;&gt;Giving experience; (Geralt, 4500)&lt;/font&gt;&lt;br&gt;&lt;/font&gt;&lt;/span&gt;&lt;/span&gt;" style="rounded=0;whiteSpace=wrap;html=1;align=center;" vertex="1" parent="1">
          <mxGeometry x="-210" y="1952.52" width="260" height="40" as="geometry" />
        </mxCell>
        <mxCell id="bjW2cNjtbmRTyIGhvJUG-86" value="" style="endArrow=classic;html=1;rounded=0;entryX=0.5;entryY=0;entryDx=0;entryDy=0;exitX=0.5;exitY=1;exitDx=0;exitDy=0;" edge="1" parent="1" source="bjW2cNjtbmRTyIGhvJUG-85" target="bjW2cNjtbmRTyIGhvJUG-88">
          <mxGeometry width="50" height="50" relative="1" as="geometry">
            <mxPoint x="-10" y="2027.52" as="sourcePoint" />
            <mxPoint x="-80.24000000000001" y="2017.52" as="targetPoint" />
          </mxGeometry>
        </mxCell>
        <mxCell id="bjW2cNjtbmRTyIGhvJUG-87" style="edgeStyle=orthogonalEdgeStyle;rounded=0;orthogonalLoop=1;jettySize=auto;html=1;" edge="1" parent="1" source="bjW2cNjtbmRTyIGhvJUG-88" target="bjW2cNjtbmRTyIGhvJUG-89">
          <mxGeometry relative="1" as="geometry" />
        </mxCell>
        <mxCell id="bjW2cNjtbmRTyIGhvJUG-88" value="&lt;span id=&quot;docs-internal-guid-4cfbbf0f-7fff-1ddc-6e00-4f36d3d0db7e&quot;&gt;&lt;span style=&quot;background-color: transparent ; vertical-align: baseline&quot;&gt;&lt;font&gt;&lt;font style=&quot;font-size: 12px;&quot; face=&quot;arial&quot;&gt;Giving money; (Geralt, 400)&lt;/font&gt;&lt;br&gt;&lt;/font&gt;&lt;/span&gt;&lt;/span&gt;" style="rounded=0;whiteSpace=wrap;html=1;align=center;" vertex="1" parent="1">
          <mxGeometry x="-210" y="2027.52" width="260" height="40" as="geometry" />
        </mxCell>
        <mxCell id="bjW2cNjtbmRTyIGhvJUG-89" value="" style="ellipse;whiteSpace=wrap;html=1;aspect=fixed;fontSize=14;align=center;fillColor=#fff2cc;strokeWidth=1;strokeColor=#d6b656;" vertex="1" parent="1">
          <mxGeometry x="-100" y="2127.52" width="40" height="40" as="geometry" />
        </mxCell>
        <mxCell id="bjW2cNjtbmRTyIGhvJUG-90" value="" style="edgeStyle=orthogonalEdgeStyle;rounded=0;orthogonalLoop=1;jettySize=auto;html=1;exitX=0.5;exitY=1;exitDx=0;exitDy=0;entryX=0.5;entryY=0;entryDx=0;entryDy=0;" edge="1" parent="1" source="bjW2cNjtbmRTyIGhvJUG-93" target="bjW2cNjtbmRTyIGhvJUG-85">
          <mxGeometry relative="1" as="geometry">
            <mxPoint x="-80" y="1912.52" as="sourcePoint" />
            <mxPoint x="-70" y="1862.52" as="targetPoint" />
          </mxGeometry>
        </mxCell>
        <mxCell id="bjW2cNjtbmRTyIGhvJUG-91" style="edgeStyle=orthogonalEdgeStyle;rounded=0;orthogonalLoop=1;jettySize=auto;html=1;exitX=0.5;exitY=1;exitDx=0;exitDy=0;entryX=0.5;entryY=0;entryDx=0;entryDy=0;" edge="1" parent="1" source="bjW2cNjtbmRTyIGhvJUG-92" target="bjW2cNjtbmRTyIGhvJUG-93">
          <mxGeometry relative="1" as="geometry" />
        </mxCell>
        <mxCell id="bjW2cNjtbmRTyIGhvJUG-92" value="&lt;span id=&quot;docs-internal-guid-4cfbbf0f-7fff-1ddc-6e00-4f36d3d0db7e&quot;&gt;&lt;span style=&quot;background-color: transparent ; vertical-align: baseline&quot;&gt;&lt;font&gt;&lt;font style=&quot;font-size: 12px;&quot; face=&quot;arial&quot;&gt;Giving experience; (Geralt, 2000)&lt;/font&gt;&lt;br&gt;&lt;/font&gt;&lt;/span&gt;&lt;/span&gt;" style="rounded=0;whiteSpace=wrap;html=1;align=center;" vertex="1" parent="1">
          <mxGeometry x="-210" y="1737.52" width="260" height="40" as="geometry" />
        </mxCell>
        <mxCell id="bjW2cNjtbmRTyIGhvJUG-93" value="&lt;span&gt;&lt;span dir=&quot;ltr&quot; class=&quot;ui-provider ef ayi ayj ayk ayl aym ayn ayo ayp ayq ayr ays ayt ayu ayv ayw ayx ayy ayz aza azb azc azd aze azf azg azh azi azj azk azl azm azn azo azp&quot;&gt;Knowledge creation / Utworzenie wiedzy fabularnej; (Sigfrid, Geralt report about the mission result)&lt;/span&gt;&lt;/span&gt;" style="rounded=0;whiteSpace=wrap;html=1;" vertex="1" parent="1">
          <mxGeometry x="-210" y="1827.52" width="260" height="80" as="geometry" />
        </mxCell>
        <mxCell id="bjW2cNjtbmRTyIGhvJUG-98" value="" style="edgeStyle=orthogonalEdgeStyle;rounded=0;orthogonalLoop=1;jettySize=auto;html=1;exitX=0.5;exitY=1;exitDx=0;exitDy=0;entryX=0.5;entryY=0;entryDx=0;entryDy=0;" edge="1" parent="1" source="FekDQM8jbrZTuftXHcIN-17" target="bjW2cNjtbmRTyIGhvJUG-97">
          <mxGeometry relative="1" as="geometry">
            <mxPoint x="-80" y="1070.02" as="sourcePoint" />
            <mxPoint x="-80" y="1293.02" as="targetPoint" />
          </mxGeometry>
        </mxCell>
        <mxCell id="bjW2cNjtbmRTyIGhvJUG-97" value="Go Save the innocents" style="rounded=0;whiteSpace=wrap;html=1;align=center;fillColor=#ffe6cc;strokeColor=#d79b00;" vertex="1" parent="1">
          <mxGeometry x="-210" y="1120" width="260" height="40" as="geometry" />
        </mxCell>
        <mxCell id="bjW2cNjtbmRTyIGhvJUG-100" style="edgeStyle=orthogonalEdgeStyle;rounded=0;orthogonalLoop=1;jettySize=auto;html=1;exitX=0.5;exitY=1;exitDx=0;exitDy=0;entryX=0.5;entryY=0;entryDx=0;entryDy=0;" edge="1" parent="1" source="bjW2cNjtbmRTyIGhvJUG-99" target="bjW2cNjtbmRTyIGhvJUG-42">
          <mxGeometry relative="1" as="geometry" />
        </mxCell>
        <mxCell id="bjW2cNjtbmRTyIGhvJUG-99" value="Kill the murderers" style="rounded=0;whiteSpace=wrap;html=1;align=center;fillColor=#ffe6cc;strokeColor=#d79b00;" vertex="1" parent="1">
          <mxGeometry x="360" y="1120" width="260" height="40" as="geometry" />
        </mxCell>
        <mxCell id="bjW2cNjtbmRTyIGhvJUG-102" value="" style="endArrow=classic;html=1;rounded=0;entryX=0.5;entryY=0;entryDx=0;entryDy=0;" edge="1" parent="1" source="FekDQM8jbrZTuftXHcIN-13" target="bjW2cNjtbmRTyIGhvJUG-101">
          <mxGeometry width="50" height="50" relative="1" as="geometry">
            <mxPoint x="-80" y="730" as="sourcePoint" />
            <mxPoint x="-80" y="910" as="targetPoint" />
          </mxGeometry>
        </mxCell>
        <mxCell id="bjW2cNjtbmRTyIGhvJUG-101" value="Spare Vetala" style="rounded=0;whiteSpace=wrap;html=1;align=center;fillColor=#ffe6cc;strokeColor=#d79b00;" vertex="1" parent="1">
          <mxGeometry x="-210" y="810" width="260" height="40" as="geometry" />
        </mxCell>
        <mxCell id="bjW2cNjtbmRTyIGhvJUG-104" value="" style="edgeStyle=orthogonalEdgeStyle;rounded=0;orthogonalLoop=1;jettySize=auto;html=1;exitX=0.5;exitY=1;exitDx=0;exitDy=0;entryX=0.5;entryY=0;entryDx=0;entryDy=0;" edge="1" parent="1" source="FekDQM8jbrZTuftXHcIN-13" target="bjW2cNjtbmRTyIGhvJUG-103">
          <mxGeometry relative="1" as="geometry">
            <mxPoint x="-480" y="910" as="targetPoint" />
            <mxPoint x="-80" y="730" as="sourcePoint" />
            <Array as="points">
              <mxPoint x="-80" y="770" />
            </Array>
          </mxGeometry>
        </mxCell>
        <mxCell id="bjW2cNjtbmRTyIGhvJUG-103" value="Kill Vetala" style="rounded=0;whiteSpace=wrap;html=1;align=center;fillColor=#ffe6cc;strokeColor=#d79b00;" vertex="1" parent="1">
          <mxGeometry x="-610" y="810" width="260" height="40" as="geometry" />
        </mxCell>
      </root>
    </mxGraphModel>
  </diagram>
</mxfile>
